<?xml version="1.0" encoding="utf-8"?><svg width="24" height="23" xmlns="http://www.w3.org/2000/svg" viewBox="0 0 24 23"><path d="M21.587 15.3l1.5-10.5c0-.1 0-.3-.1-.4-.1-.1-.2-.1-.4-.1h-17.7l-.7-3.9c0-.2-.2-.4-.5-.4h-2.4c-.3 0-.5.2-.5.5s.3.5.5.5h2l2.5 16.9c0 .2.2.4.5.4h14.7c.3 0 .5-.2.5-.5s-.2-.5-.5-.5h-14.3l-.3-1.6h14.6c.3 0 .5-.1.6-.4zm.4-10l-1.3 9.5h-14.3l-1.4-9.5h17zM8.588 18.8c-1.1 0-1.9.9-1.9 1.9 0 1.1.9 2 1.9 2 1.1 0 1.9-.9 1.9-1.9 0-1.1-.9-2-1.9-2zm.9 1.9c0 .5-.4 1-1 1-.5 0-1-.4-1-1s.4-1 1-1 1 .5 1 1zM18.386 18.8c-1.1 0-1.9.9-1.9 1.9 0 1.1.9 2 1.9 2 1 0 1.9-.9 1.9-1.9 0-1.1-.9-2-1.9-2zm0 2.9c-.5 0-1-.4-1-1 0-.5.4-1 1-1 .5 0 1 .4 1 1s-.5 1-1 1z"/></svg>