<?xml version="1.0" encoding="utf-8"?><svg width="22" height="19" xmlns="http://www.w3.org/2000/svg" viewBox="0 0 22 19"><path d="M17.74.423c-2.5-1-5.2-.2-6.9 2.1-1.8-2.3-4.4-3.1-6.9-2-2.4 1-4.7 3.9-3.7 7.9.7 3.6 3.5 6.2 5.8 7.8 2.4 1.7 4.5 2.6 4.7 2.6h.2c.1 0 .2 0 .2-.1.3-.1 2.3-1 4.6-2.6 2.2-1.6 5-4.2 5.8-7.9.9-3.9-1.4-6.8-3.8-7.8zm-.5 1c2.1.8 3.9 3.3 3.1 6.7-1.3 5.8-8.6 9.2-9.6 9.7-1.2-.5-8.3-3.9-9.6-9.7-.7-3.4 1.1-5.8 3.2-6.7.6-.2 1.1-.3 1.7-.3 2 0 3.5 1.4 4.3 2.7.1.1.3.2.4.2.2 0 .3-.1.4-.2 1.2-1.8 3.4-3.5 6.1-2.4z"/></svg>